<svg xmlns="http://www.w3.org/2000/svg" xml:space="preserve" data-id="lg_9KmLsRPJOIilNZ4l7v" data-version="1" viewBox="764.5 -0.5 471 197"><g data-padding="20"><g transform="translate(10 4.17)scale(.95745)"><path fill="#fff" d="M933.765 154.953V47.48c0-11.73-9.509-21.24-21.24-21.24h-92.04c-11.73 0-21.24 9.51-21.24 21.24s9.51 21.24 21.24 21.24h7.08v106.2c0 11.73 9.51 21.24 21.24 21.24h77.88c10.281-.08 19.028-7.51 20.77-17.643 1.74-10.132-4.025-20.056-13.69-23.563M827.565 54.56h-7.08a7.08 7.08 0 1 1 7.08-7.08ZM848.805 182a7.08 7.08 0 0 1-7.08-7.08V47.48a21.2 21.2 0 0 0-1.274-7.08h72.075a7.08 7.08 0 0 1 7.08 7.08v106.2h-70.8a7.08 7.08 0 0 0 0 14.16 7.08 7.08 0 1 1 0 14.16m77.88 0h-57.844a21.2 21.2 0 0 0 1.204-7.08 21.2 21.2 0 0 0-1.204-7.08h57.844a7.08 7.08 0 1 1 0 14.16m-70.8-113.28a7.08 7.08 0 0 1 7.08-7.08h35.4a7.08 7.08 0 0 1 0 14.16h-35.4a7.08 7.08 0 0 1-7.08-7.08m0 28.32a7.08 7.08 0 0 1 7.08-7.08h35.4a7.08 7.08 0 1 1 0 14.16h-35.4a7.08 7.08 0 0 1-7.08-7.08m0 28.32a7.08 7.08 0 0 1 7.08-7.08h28.32a7.08 7.08 0 0 1 0 14.16h-28.32a7.08 7.08 0 0 1-7.08-7.08m141.175-24.001a255 255 0 0 0-.92-35.754v-1.841a255 255 0 0 0-13.24-59.26 7.08 7.08 0 0 0-13.31 0 255 255 0 0 0-13.098 59.26v1.84a255 255 0 0 0-.92 35.755 7 7 0 0 0 0 2.194 255 255 0 0 0 7.08 49.985 14.16 14.16 0 0 0 6.513 8.638v12.744a7.08 7.08 0 1 0 14.16 0v-12.744a14.16 14.16 0 0 0 6.23-8.638 255 255 0 0 0 7.08-49.985 7.1 7.1 0 0 0 .425-2.194m-20.815 45.24a241 241 0 0 1-4.319-23.292 6.37 6.37 0 0 0 9.346 0q-1.558 11.682-4.32 23.293Zm-5.664-59.542a7.08 7.08 0 0 0 11.328 0l1.274-1.628v14.16l-7.08 7.788-7.08-7.788v-14.16Zm11.186-23.576-5.522 7.504-5.523-7.504a241 241 0 0 1 5.523-31.931 241 241 0 0 1 5.522 31.93"></path><rect width="294" height="99.44" x="592.275" y="-201.69" fill="none" rx="0" ry="0" transform="translate(382.48 281.23)"></rect><path fill="#fff" d="M1043.405 152.71V141.8h-4.93v10.82q0 3.7.97 6.38.97 2.69 2.9 4.36 1.94 1.67 4.84 2.46 2.91.8 6.69.8l.53-4.14q-2.64 0-4.71-.48-2.07-.49-3.43-1.63-1.37-1.15-2.11-3.04-.75-1.89-.75-4.62m-20.86-40.3v28.33q0 5.72 2.51 9.6 2.51 3.87 6.73 5.8 4.23 1.94 9.42 1.94 5.45 0 9.63-2.11t6.52-5.99q2.33-3.87 2.33-9.24V112.5q0-8.63-4.84-13.51-4.84-4.89-13.55-4.89-8.72 0-13.73 4.67-5.02 4.66-5.02 13.64m5.02 28.25v-29.04q0-4.32 1.67-7.13 1.67-2.82 4.71-4.27 3.03-1.45 7.08-1.45 4.23 0 7.31 1.45t4.75 4.27q1.67 2.81 1.67 7.13v29.04q0 4.31-1.76 7.17t-4.84 4.22q-3.08 1.37-7.13 1.37-3.87 0-6.91-1.46-3.03-1.45-4.79-4.26-1.76-2.82-1.76-7.04m75.59.09V95.52h-4.93v45.15q0 4.22-1.71 7.08-1.72 2.86-4.76 4.27-3.03 1.41-7.08 1.41t-7.08-1.46q-3.04-1.45-4.76-4.26-1.71-2.82-1.71-7.04V95.52h-4.93v45.23q0 5.72 2.33 9.6 2.33 3.87 6.56 5.8 4.22 1.94 9.68 1.94 5.45 0 9.59-1.98t6.47-5.85 2.33-9.51m7.13-45.24v61.6h29.21v-4.4h-24.2V125.7h15.14l1.58-4.84h-16.72v-20.77h24.38v-4.58Zm69.16 6.7 1.4-4.22q-2.02-1.15-4.26-1.85-2.25-.71-4.54-1.06-2.28-.35-4.66-.35-3.61 0-7.08.79-3.48.79-6.34 2.55t-4.58 4.67q-1.71 2.9-1.71 7.04 0 3.43 1.41 5.98 1.4 2.55 3.78 4.4t5.37 3.3 6.11 2.69q3.13 1.23 6.12 2.55t5.37 2.95q2.37 1.62 3.78 3.78t1.41 5.15q0 3.52-1.28 5.98-1.27 2.47-3.52 3.96-2.24 1.5-5.1 2.2-2.86.71-5.94.71-2.99 0-6.34-.84-3.34-.84-6.33-2.51t-4.84-4.13l-3.08 3.08q2.73 3.16 5.98 5.19 3.26 2.02 7.04 2.99 3.79.97 7.92.97 3.87 0 7.57-.97t6.69-3.04q2.99-2.06 4.75-5.28 1.76-3.21 1.76-7.61 0-4.05-1.41-6.99-1.41-2.95-3.83-5.02t-5.36-3.61q-2.95-1.54-6.16-2.77-3.22-1.23-6.16-2.46-2.95-1.24-5.37-2.73-2.42-1.5-3.83-3.52-1.41-2.03-1.41-4.84 0-2.91 1.37-4.84 1.36-1.94 3.6-3.04 2.25-1.1 4.8-1.54t4.93-.44q2.11 0 4.18.27 2.07.26 4.05.88 1.98.61 3.74 1.58m30.1 54.9v-57.2h15.49v-4.4h-35.38v4.4h15.05v57.2Z"></path></g><path fill="transparent" stroke="transparent" d="M765 0h470v196H765z"></path></g></svg>